<?xml version="1.0" encoding="UTF-8"?>
<!-- Created with Inkscape (http://www.inkscape.org/) -->
<svg width="1920" height="1080" version="1.1" viewBox="0 0 508 285.75" xmlns="http://www.w3.org/2000/svg">
 <g fill="none">
  <path d="m324.2 193.91c6.6354-0.13225 12.878-2.9872 18.948-5.3688 14.762-6.1631 28.998-13.494 43.167-20.896 9.3841-4.8395 18.465-10.412 28.38-14.148 1.736-0.6541 3.5137-1.1913 5.2706-1.787 8.4629-2.6756 17.322-3.3835 26.061-4.5913 1.6978-0.23463 3.3895-0.51104 5.0842-0.76657 1.6211-0.28025 3.242-0.56178 4.8634-0.84077 1.7889-0.30783 3.5823-0.59045 5.3674-0.91967 11.836-2.1829-2.2122 0.30305 8.2457-1.6979 1.3531-0.25889 2.7156-0.46576 4.0735-0.69864l2.7886-2.0979c-1.354 0.22294-2.7147 0.40857-4.062 0.66881-11.64 2.2483 4.8266-0.65196-8.3854 1.8239-1.7673 0.33119-3.5492 0.57963-5.3216 0.88269-1.6275 0.27828-3.2519 0.57421-4.8778 0.86131-1.6918 0.25671-3.3807 0.53334-5.0754 0.77012-8.7641 1.2245-17.651 1.9197-26.148 4.5737-1.7612 0.58939-3.5444 1.1168-5.2836 1.7682-10.007 3.7475-19.15 9.3998-28.605 14.291-14.108 7.3836-28.266 14.742-43.003 20.81-5.7698 2.2321-11.976 5.0727-18.291 5.0398l-3.1973 2.323z"/>
  <path d="m3.2357 220.03c5.0424-4.3242 8.8429-9.8849 13.867-14.329 8.9023-7.8751 19.82-13.911 30.045-19.876 14.321-8.3537 32.706-18.201 49.46-19.876 1.9931-0.19931 4.0072 0.0667 6.0091 0 9.0074-0.30024 16.773-0.93262 25.423 2.3112 2.1405 0.80268 7.8268 4.1445 9.707 5.0846 8.0295 4.0147 15.804 7.898 23.574 12.48 25.765 15.195 49.561 33.761 80.429 36.517 12.214 1.0906 29.477 2.6261 41.601 0.92447 8.0857-1.1348 17.496-4.1846 25.423-6.4713 18.959-5.469 6.4432-2.2225 22.65-5.5469 2.7831-0.5709 5.5078-1.4472 8.3203-1.849 13.797-1.9709 28.546-0.69281 42.064 2.3112 3.1008 0.68907 6.1401 1.6399 9.2448 2.3112 10.876 2.3515 22.03 3.1531 32.819 6.0091 2.3551 0.6234 4.5863 1.6592 6.9336 2.3112 3.2048 0.89021 6.5089 1.3974 9.707 2.3112 3.748 1.0708 7.3602 2.5778 11.094 3.6979" stroke="#000" stroke-width=".26458px"/>
  <path d="m344.37 203.38c22.001-12.572-5.2992 2.75 29.583-15.254 7.7803-4.0156 15.281-8.5649 23.112-12.48 5.92-2.96 15.653-8.1228 23.574-9.707 5.7651-1.153 11.27-0.92447 17.103-0.92447 6.591 0 13.32-0.10791 19.876 0.46223 6.5586 0.57031 13.051 2.5695 19.414 4.1602 5.5447 1.3862 10.757 3.9279 16.641 3.2357 4.5014-0.52957 3.5188-0.90138 7.3958-2.3112 0.64757-0.23549 2.538-0.92448 1.8489-0.92448-0.15406 0 0 0.30816 0 0.46224" stroke="#000" stroke-width=".26458px"/>
 </g>
</svg>
