<?xml version="1.0" encoding="UTF-8"?>
<!-- Generator: Blender, SVG Export for Grease Pencil - v1.0 -->
<!DOCTYPE svg PUBLIC "-//W3C//DTD SVG 1.1//EN" "http://www.w3.org/Graphics/SVG/1.1/DTD/svg11.dtd">
<svg version="1.0" x="0px" y="0px" xmlns="http://www.w3.org/2000/svg" width="1920px" height="1080px" viewBox="0 0 1920 1080">
	<g id="blender_frame_1">
		<g id="blender_object_Background">
			<!--Layer: Lines-->
			<g id="Lines">
				<path fill-opacity="1" fill="#000000" stroke="none" d="M-7.213783,657.350464L-7.011108,657.199280L11.858025,644.303833L11.966228,644.241516L27.507305,635.385376L27.767372,635.260254L56.605053,622.868164L56.693516,622.832397L80.271667,613.670898L80.485550,613.597046L97.085663,608.478271L127.323875,597.672729L127.329422,597.670654L159.857941,586.118896L159.933640,586.093140L202.913589,571.972351L203.112717,571.913940L243.771057,561.250061L243.823181,561.236938L296.712585,548.257874L296.873352,548.222534L328.122528,542.058044L328.158020,542.051331L367.128967,534.781189L390.436371,530.253601L390.678925,530.215027L480.476135,518.908325L480.560059,518.898743L531.168823,513.670166L572.797607,509.182190L572.951538,509.168884L597.340637,507.518555L631.862671,503.552063L632.065552,503.534302L669.451111,501.176392L669.522156,501.172668L704.991638,499.591248L705.101440,499.587952L787.529724,498.197205L828.398071,497.342590L828.438721,497.341919L949.608765,495.996704L949.876099,496.002502L981.206604,497.699158L981.296753,497.705078L1012.530640,500.082031L1012.710449,500.099731L1041.292480,503.536621L1041.664307,503.598755L1089.484131,513.838684L1120.280884,517.556763L1120.437744,517.578735L1191.221558,528.870789L1191.456055,528.915161L1223.334106,535.890747L1256.923828,542.755127L1291.460205,549.666687L1291.562866,549.688599L1331.923096,558.821655L1332.145874,558.878540L1358.302490,566.316345L1358.330566,566.324463L1395.036011,577.039490L1426.231812,585.712402L1426.272583,585.723999L1450.094482,592.601196L1450.202515,592.633911L1472.590088,599.745117L1472.809937,599.821777L1519.160767,617.379395L1519.300293,617.435120L1539.010498,625.704712L1563.059937,633.247009L1563.381470,633.362183L1594.726440,645.976807L1594.890625,646.046997L1630.539429,662.146118L1630.580566,662.164978L1652.739502,672.443542L1676.836426,681.460449L1676.920166,681.492859L1703.330811,691.979370L1721.744507,699.186646L1742.634888,707.189331L1742.803711,707.258179L1767.090454,717.715698L1767.163696,717.748047L1789.158936,727.692383L1789.316284,727.767273L1806.958984,736.582825L1807.082397,736.646973L1833.007568,750.619568L1833.705322,751.084473L1845.997314,761.028198L1861.140747,771.204346L1876.578491,779.849609L1876.944214,780.078186L1890.888550,789.757507L1919.872070,804.318848L1920.181763,804.489929L1934.049683,812.856689L1949.189697,822.903442L1938.257446,819.468262L1938.257446,819.468262L1938.225342,819.439026L1938.199707,819.404053L1938.181396,819.364746L1938.170898,819.322632L1938.169067,819.279358L1938.175781,819.236572L1938.190674,819.195801L1938.213013,819.158691L1938.242310,819.126709L1938.277100,819.101074L1938.316528,819.082764L1938.358643,819.072449L1938.402100,819.070557L1938.444702,819.077148L1938.485352,819.091919L1938.522461,819.114380L1949.517944,823.122498L1950.087646,823.654785L1950.529663,824.296997L1950.823486,825.019287L1950.955322,825.787842L1950.918701,826.566650L1950.715454,827.319458L1950.355469,828.011108L1949.855347,828.609131L1949.238281,829.085693L1948.532837,829.418518L1947.772705,829.592041L1946.992920,829.598145L1946.230347,829.436584L1945.520142,829.114807L1929.394287,820.690735L1929.354370,820.666870L1915.634521,812.352295L1886.535034,797.707581L1885.989502,797.383667L1871.947876,787.665588L1856.548462,779.017883L1856.236084,778.825562L1840.783081,768.422119L1840.461548,768.184570L1828.348022,758.371765L1802.862671,744.617615L1785.366821,735.858582L1763.496338,725.947510L1739.342896,715.512573L1718.532227,707.510559L1718.501587,707.498718L1700.071533,700.253784L1700.048218,700.244629L1673.699097,689.691650L1649.506348,680.583923L1649.199585,680.455322L1626.924927,670.084717L1591.393677,653.997559L1560.313110,641.422668L1536.241333,633.852051L1535.864990,633.714233L1516.043701,625.384949L1469.888550,607.852173L1447.672363,600.773621L1423.931274,593.896240L1392.736694,585.197144L1392.685059,585.182373L1355.972412,574.447998L1329.944702,567.030823L1289.753906,557.907166L1255.266724,550.976624L1255.250854,550.973389L1221.627808,544.087341L1221.571289,544.075378L1189.783813,537.108032L1119.203369,525.801208L1088.300537,522.051819L1087.929565,521.989746L1040.114380,511.730469L1011.811646,508.307800L980.714172,505.922607L949.563049,504.221191L828.546021,505.468750L787.688660,506.305542L787.671021,506.305847L705.287476,507.608765L669.906006,509.128174L632.651367,511.374756L598.131958,515.275024L597.948975,515.291504L573.541382,516.882080L531.971130,521.270691L531.954102,521.272461L481.367340,526.383118L391.712158,537.494751L368.504059,541.966309L368.475098,541.971802L329.487488,549.133484L298.316101,555.172852L245.502548,568.001770L204.936386,578.501465L162.042221,592.421875L129.516510,603.852539L99.175476,614.571899L99.040604,614.616455L82.462349,619.662842L58.991718,628.655762L30.158272,640.562500L14.459610,648.695801L-5.496025,659.443115L-9.569092,661.594177L-9.569092,661.594177L-9.603767,661.619751L-9.642792,661.638123L-9.684677,661.648560L-9.727592,661.650513L-9.770279,661.644165L-9.810791,661.629517L-9.847641,661.607300L-9.879456,661.578308L-9.905205,661.543701L-9.923515,661.504639L-9.933929,661.462891L-9.935875,661.419800L-9.929581,661.377197L-9.914818,661.336670L-9.892731,661.299744L-9.863663,661.267883L-7.240334,657.389587z" />
				<path fill-opacity="1" fill="#000000" stroke="none" d="M1302.984497,547.179871L1318.037109,538.261597L1318.195679,538.185425L1349.699951,523.686279L1350.203369,523.513062L1378.221313,516.328064L1399.731445,510.382812L1399.886841,510.344177L1431.249146,503.277710L1431.512451,503.229675L1577.421143,482.320190L1577.648804,482.295166L1605.545654,480.085449L1645.769287,475.462036L1645.897095,475.449768L1689.804810,471.958130L1689.932983,471.950195L1725.656494,470.343933L1747.246704,468.696716L1747.578491,468.686279L1837.262695,469.805908L1837.673218,469.833557L1856.714355,472.150635L1857.201538,472.242737L1873.772217,476.507141L1873.810547,476.517273L1895.463745,482.324768L1895.600098,482.364075L1918.057983,489.296021L1918.865479,489.652039L1932.993408,498.371338L1933.673340,498.893982L1934.203979,499.567749L1934.552734,500.351318L1934.697876,501.196594L1934.630615,502.051575L1930.534912,508.943115L1930.534912,508.943115L1930.486450,509.099548L1930.408203,509.243530L1930.303345,509.369446L1930.176025,509.472595L1930.031494,509.548889L1929.874146,509.595459L1929.710938,509.610474L1929.548096,509.593384L1929.391968,509.544861L1929.247803,509.466736L1929.121826,509.362000L1929.018677,509.234741L1928.942383,509.089722L1928.895752,508.932739L1928.880615,508.769653L1928.897949,508.606689L1927.353516,503.084534L1915.374756,496.473328L1893.414062,489.676758L1871.855225,483.867432L1855.546875,479.659424L1836.958984,477.379761L1747.647827,476.191772L1726.163086,477.806824L1726.046387,477.813843L1690.326660,479.376892L1646.543579,482.814026L1606.310547,487.371216L1606.179321,487.383789L1578.324951,489.509460L1432.602661,509.961792L1401.418701,516.845093L1379.929443,522.678894L1379.870239,522.694519L1352.049316,529.694702L1320.390625,542.960022L1304.509033,550.190491L1304.434082,550.227234L1300.314087,551.073364L1300.314087,551.073364L1300.178467,551.120361L1300.036377,551.139954L1299.893066,551.131470L1299.754272,551.095154L1299.625122,551.032471L1299.510742,550.945801L1299.415405,550.838501L1299.343018,550.714661L1299.295898,550.579041L1299.276367,550.436890L1299.284790,550.293579L1299.321045,550.154724L1299.383667,550.025635L1299.470459,549.911194L1299.577759,549.815979L1299.701660,549.743408L1302.951782,547.205505z" />
			</g>
		</g>
	</g>
</svg>
